# xmcd
#
# Track frame offsets:
#  150
#  18339
#  37141
#  53236
#  76770
#  95210
#  112739
#  129046
#  144965
#  161918
#  177651
#  190119
#  206116
#  225661
#  243531
#  260654
#  277622
#
# Disc length: 3998 seconds
#
# Revision: 0
# Processed by: cddbd v1.4PL0 Copyright (c) Steve Scherf et al.
# Submitted via: AltoMP3_Maker 3.0
#
DISCID=e70f9c11
DTITLE=高晓松 - 青春无悔-高晓松作品集
DYEAR=1900
DGENRE=
TTITLE0=模范情书
TTITLE1=青春无悔
TTITLE2=恋恋风尘
TTITLE3=立秋
TTITLE4=再见
TTITLE5=风景
TTITLE6=冬季校园
TTITLE7=睡在我上铺的兄弟
TTITLE8=白衣飘飘的年代
TTITLE9=荒冢
TTITLE10=平凡
TTITLE11=被你想起
TTITLE12=你是我长发飞舞的青春
TTITLE13=好风长吟
TTITLE14=同桌的你
TTITLE15=城市泪痕
TTITLE16=珍惜爱
EXTD=
EXTT0=
EXTT1=
EXTT2=
EXTT3=
EXTT4=
EXTT5=
EXTT6=
EXTT7=
EXTT8=
EXTT9=
EXTT10=
EXTT11=
EXTT12=
EXTT13=
EXTT14=
EXTT15=
EXTT16=
PLAYORDER=
